<mxfile host="Electron" agent="Mozilla/5.0 (Windows NT 10.0; Win64; x64) AppleWebKit/537.36 (KHTML, like Gecko) draw.io/26.0.4 Chrome/128.0.6613.186 Electron/32.2.5 Safari/537.36" version="26.0.4">
  <diagram name="Page-1" id="yWIZDfF7RIbYf2EyZTEc">
    <mxGraphModel dx="1098" dy="820" grid="1" gridSize="10" guides="1" tooltips="1" connect="1" arrows="1" fold="1" page="1" pageScale="1" pageWidth="850" pageHeight="1100" math="0" shadow="0">
      <root>
        <mxCell id="0" />
        <mxCell id="1" parent="0" />
        <mxCell id="OHj9rDBvikgJhQtZoa6a-1" value="" style="shape=step;perimeter=stepPerimeter;whiteSpace=wrap;html=1;fixedSize=1;size=10;direction=south;fillColor=#000033;strokeColor=none;rounded=0;" vertex="1" parent="1">
          <mxGeometry x="80" y="150" width="30" height="80" as="geometry" />
        </mxCell>
        <mxCell id="OHj9rDBvikgJhQtZoa6a-2" value="" style="shape=step;perimeter=stepPerimeter;whiteSpace=wrap;html=1;fixedSize=1;size=10;direction=south;fillColor=#003366;strokeColor=none;rounded=0;" vertex="1" parent="1">
          <mxGeometry x="80" y="230" width="30" height="80" as="geometry" />
        </mxCell>
        <mxCell id="OHj9rDBvikgJhQtZoa6a-3" value="" style="shape=step;perimeter=stepPerimeter;whiteSpace=wrap;html=1;fixedSize=1;size=10;direction=south;fillColor=#004C99;strokeColor=none;rounded=0;" vertex="1" parent="1">
          <mxGeometry x="80" y="310" width="30" height="80" as="geometry" />
        </mxCell>
        <mxCell id="OHj9rDBvikgJhQtZoa6a-4" value="" style="shape=step;perimeter=stepPerimeter;whiteSpace=wrap;html=1;fixedSize=1;size=10;direction=south;fillColor=#0066CC;strokeColor=none;rounded=0;" vertex="1" parent="1">
          <mxGeometry x="80" y="390" width="30" height="80" as="geometry" />
        </mxCell>
        <mxCell id="OHj9rDBvikgJhQtZoa6a-5" value="" style="shape=step;perimeter=stepPerimeter;whiteSpace=wrap;html=1;fixedSize=1;size=10;direction=south;fillColor=#007FFF;strokeColor=none;rounded=0;" vertex="1" parent="1">
          <mxGeometry x="80" y="470" width="30" height="80" as="geometry" />
        </mxCell>
        <mxCell id="OHj9rDBvikgJhQtZoa6a-6" value="&lt;font style=&quot;&quot;&gt;&lt;font style=&quot;color: rgb(0, 51, 102);&quot;&gt;&lt;b style=&quot;&quot;&gt;Prompt Layer Protection&lt;/b&gt;&lt;/font&gt;&lt;br&gt;&lt;br&gt;Defense against jailbreaks, prompt injections, and unauthorized manipulation.&lt;br&gt;&lt;/font&gt;" style="rounded=1;strokeColor=none;fillColor=#EEEEEE;align=center;arcSize=12;verticalAlign=top;whiteSpace=wrap;html=1;fontSize=12;" vertex="1" parent="1">
          <mxGeometry x="120" y="150" width="430" height="70" as="geometry" />
        </mxCell>
        <mxCell id="OHj9rDBvikgJhQtZoa6a-7" value="&lt;font style=&quot;&quot;&gt;&lt;font style=&quot;color: rgb(0, 51, 102);&quot;&gt;&lt;b style=&quot;&quot;&gt;Output Safety and Content Security&lt;/b&gt;&lt;/font&gt;&lt;br&gt;&lt;br&gt;Ensures AI-generated responses are safe, unbiased, and compliant.&lt;br&gt;&lt;/font&gt;" style="rounded=1;strokeColor=none;fillColor=#EEEEEE;align=center;arcSize=12;verticalAlign=top;whiteSpace=wrap;html=1;fontSize=12;" vertex="1" parent="1">
          <mxGeometry x="120" y="230" width="430" height="70" as="geometry" />
        </mxCell>
        <mxCell id="OHj9rDBvikgJhQtZoa6a-8" value="&lt;font style=&quot;&quot;&gt;&lt;font style=&quot;color: rgb(0, 51, 102);&quot;&gt;&lt;b style=&quot;&quot;&gt;Model Integrity and Drift Detection&lt;/b&gt;&lt;/font&gt;&lt;br&gt;&lt;br&gt;Detects silent failures or attacks on training/inference pipelines.&lt;br&gt;&lt;/font&gt;" style="rounded=1;strokeColor=none;fillColor=#EEEEEE;align=center;arcSize=12;verticalAlign=top;whiteSpace=wrap;html=1;fontSize=12;" vertex="1" parent="1">
          <mxGeometry x="120" y="310" width="430" height="70" as="geometry" />
        </mxCell>
        <mxCell id="OHj9rDBvikgJhQtZoa6a-9" value="&lt;font style=&quot;&quot;&gt;&lt;font style=&quot;color: rgb(0, 51, 102);&quot;&gt;&lt;b style=&quot;&quot;&gt;Agentic Behavior Monitoring&lt;/b&gt;&lt;/font&gt;&lt;br&gt;&lt;br&gt;Observes how autonomous agents make decisions and call tools.&lt;br&gt;&lt;/font&gt;" style="rounded=1;strokeColor=none;fillColor=#EEEEEE;align=center;arcSize=12;verticalAlign=top;whiteSpace=wrap;html=1;fontSize=12;" vertex="1" parent="1">
          <mxGeometry x="120" y="390" width="430" height="70" as="geometry" />
        </mxCell>
        <mxCell id="OHj9rDBvikgJhQtZoa6a-10" value="&lt;font style=&quot;&quot;&gt;&lt;font style=&quot;color: rgb(0, 51, 102);&quot;&gt;&lt;b style=&quot;&quot;&gt;Protocol and Context Security&lt;/b&gt;&lt;/font&gt;&lt;br&gt;&lt;br&gt;Secures memory and session context from tampering.&lt;br&gt;&lt;/font&gt;" style="rounded=1;strokeColor=none;fillColor=#EEEEEE;align=center;arcSize=12;verticalAlign=top;whiteSpace=wrap;html=1;fontSize=12;" vertex="1" parent="1">
          <mxGeometry x="120" y="470" width="430" height="70" as="geometry" />
        </mxCell>
        <mxCell id="OHj9rDBvikgJhQtZoa6a-11" value="" style="shape=step;perimeter=stepPerimeter;whiteSpace=wrap;html=1;fixedSize=1;size=10;direction=south;fillColor=#3399FF;strokeColor=none;rounded=0;" vertex="1" parent="1">
          <mxGeometry x="80" y="550" width="30" height="80" as="geometry" />
        </mxCell>
        <mxCell id="OHj9rDBvikgJhQtZoa6a-12" value="&lt;font style=&quot;&quot;&gt;&lt;font style=&quot;color: rgb(0, 51, 102);&quot;&gt;&lt;b style=&quot;&quot;&gt;Tool/API Invocation Tracking&lt;/b&gt;&lt;/font&gt;&lt;br&gt;&lt;br&gt;Prevents lateral movement and misuse of trusted internal or external APIs.&lt;br&gt;&lt;/font&gt;" style="rounded=1;strokeColor=none;fillColor=#EEEEEE;align=center;arcSize=12;verticalAlign=top;whiteSpace=wrap;html=1;fontSize=12;" vertex="1" parent="1">
          <mxGeometry x="120" y="550" width="430" height="70" as="geometry" />
        </mxCell>
        <mxCell id="OHj9rDBvikgJhQtZoa6a-13" value="" style="shape=step;perimeter=stepPerimeter;whiteSpace=wrap;html=1;fixedSize=1;size=10;direction=south;fillColor=#66B2FF;strokeColor=none;rounded=0;" vertex="1" parent="1">
          <mxGeometry x="80" y="630" width="30" height="80" as="geometry" />
        </mxCell>
        <mxCell id="OHj9rDBvikgJhQtZoa6a-14" value="&lt;font style=&quot;&quot;&gt;&lt;font style=&quot;color: rgb(0, 51, 102);&quot;&gt;&lt;b style=&quot;&quot;&gt;Incident and Threat Correlation&lt;/b&gt;&lt;/font&gt;&lt;br&gt;&lt;br&gt;Consolidates and categorizes AI-specific security incidents.&lt;br&gt;&lt;/font&gt;" style="rounded=1;strokeColor=none;fillColor=#EEEEEE;align=center;arcSize=12;verticalAlign=top;whiteSpace=wrap;html=1;fontSize=12;" vertex="1" parent="1">
          <mxGeometry x="120" y="630" width="430" height="70" as="geometry" />
        </mxCell>
        <mxCell id="OHj9rDBvikgJhQtZoa6a-15" value="AI Threat &amp;amp; Incident Detection Telemetry Categories" style="html=1;shape=mxgraph.infographic.flag;dx=30;dy=20;fillColor=#10739E;strokeColor=none;align=center;verticalAlign=top;fontColor=#ffffff;fontSize=14;fontStyle=1;shadow=0;spacingTop=5;" vertex="1" parent="1">
          <mxGeometry x="80" y="80" width="470" height="70" as="geometry" />
        </mxCell>
      </root>
    </mxGraphModel>
  </diagram>
</mxfile>
